<svg xmlns="http://www.w3.org/2000/svg" viewBox="0 0 360 200" height="200" width="360" preserveAspectRatio="xMidYMid meet" class="" fill="none"><title>community-nux-light</title><g clip-path="url(#clip0_995_68203)"><path opacity="0.15" d="M308.2 59.5H306.6C303.8 59.5 301.6 61.8999 301.6 64.6999C301.6 67.4999 303.9 69.6999 306.6 69.6999C309.7 69.6999 312.1 72.2 312.1 75.2V185.9C312.1 190.9 308.1 194.9 303.1 194.9H135.6C130.6 194.9 126.6 190.9 126.6 185.9V64.6999H125.1C120.1 64.6999 116.1 60.7 116.1 55.7V16.7C116.1 11.7 120.1 7.69995 125.1 7.69995H324.7C329.7 7.69995 333.7 11.7 333.7 16.7V50.7C333.7 55.7 329.7 59.7 324.7 59.7H307.9" fill="#06CF9C"></path><path d="M138.2 80.4H300.5C303.2 80.4 305.3 82.5 305.3 85.2V122.7C305.3 125.4 303.2 127.5 300.5 127.5H138.2C135.5 127.5 133.4 125.4 133.4 122.7V85.2C133.4 82.5 135.5 80.4 138.2 80.4Z" fill="#73F38F" stroke="#316474" stroke-linecap="round" stroke-linejoin="round"></path><path d="M159.8 123.3C170.514 123.3 179.2 114.614 179.2 103.9C179.2 93.1857 170.514 84.5 159.8 84.5C149.086 84.5 140.4 93.1857 140.4 103.9C140.4 114.614 149.086 123.3 159.8 123.3Z" fill="#FCF5EB" stroke="#316474" stroke-linecap="round" stroke-linejoin="round"></path><path d="M138.2 137.3H300.5C303.2 137.3 305.3 139.4 305.3 142.1V179.6C305.3 182.3 303.2 184.4 300.5 184.4H138.2C135.5 184.4 133.4 182.3 133.4 179.6V142.1C133.4 139.4 135.5 137.3 138.2 137.3Z" fill="#73F38F" stroke="#316474" stroke-linecap="round" stroke-linejoin="round"></path><path d="M159.8 180.3C170.514 180.3 179.2 171.614 179.2 160.9C179.2 150.186 170.514 141.5 159.8 141.5C149.086 141.5 140.4 150.186 140.4 160.9C140.4 171.614 149.086 180.3 159.8 180.3Z" fill="#FCF5EB" stroke="#316474" stroke-linecap="round" stroke-linejoin="round"></path><path d="M141.1 12.4H163C170 12.4 175.6 18 175.6 25V46.9C175.6 53.9 170 59.5 163 59.5H141.1C134.1 59.5 128.5 53.9 128.5 46.9V25C128.5 18 134.1 12.4 141.1 12.4Z" fill="#FCF5EB" stroke="#316474" stroke-linecap="round" stroke-linejoin="round"></path><path d="M267.1 28.7L190.7 28.7999L267.1 28.7ZM246.3 43.2L190.9 43.2999L246.3 43.2Z" fill="#FCF5EB"></path><path d="M267.1 28.7L190.7 28.7999M246.3 43.2L190.9 43.2999" stroke="#316474" stroke-linecap="round" stroke-linejoin="round"></path><path d="M167.2 28.5C168.2 27.7 169.8 26 167.2 23.1C164.5 20.1 163 19.1 162.1 18.7C161.2 18.2 159.7 17.5 157.7 19.5C157.3 19.9 155 21.9 152.2 24.7C157.2 26.7 160.9 31.2 162.1 33.4L167.2 28.5ZM148.2 43C148.2 40.3 144.2 37.9 144.2 37.9C144.6 35.9 140.4 37.8 140.4 37.8L138.4 38.4L137.8 40C137.4 41 136.8 43.5 136.5 45.7V47.7C136.5 47.7 136.7 48.3 137.9 48.7L139.4 49.2C141.8 48.9 146.7 47.8 148 47.2C147.3 45.8 148.2 43.1 148.2 43.1V43Z" fill="white" stroke="#316474" stroke-linecap="round" stroke-linejoin="round"></path><path d="M162 33.4C159.7 29.5 156.3 26.5 152.2 24.7L150.5 26.6L138.4 38.4V38.9C138.4 38.9 142.5 40 142.2 41.9C142.2 41.9 145.4 42.4 145.4 45.2C145.4 45.2 147.4 45.7 148 47.2C151 45.1 155.2 40.5 159.5 36.2L162.1 33.4H162ZM139.8 49C138.9 45.7999 136.5 45.7 136.5 45.7C136.5 45.7 136 49 136.3 49.4C136.5 49.6 137.9 49.4 139.6 49.2L139.9 49.0999L139.8 49Z" fill="#73F38F" stroke="#316474" stroke-linecap="round" stroke-linejoin="round"></path><path d="M166 29.6C163.7 25.9 160.3 23 156.3 21.4L166 29.6Z" fill="white"></path><path d="M166 29.6C163.7 25.9 160.3 23 156.3 21.4" stroke="#316474" stroke-linecap="round" stroke-linejoin="round"></path><path d="M286.7 59.5999H282.7C277.7 59.5999 273.7 55.5999 273.7 50.5999V27C273.7 22 277.7 18 282.7 18H306.4C311.4 18 315.4 22 315.4 27V50.5999C315.4 54.9999 312.3 58.6 308.2 59.4L306.7 59.5999C303.8 59.5999 301.6 61.8999 301.6 64.5999C301.6 67.4999 303.9 69.8 306.7 69.8C309.7 69.8 312.2 72.2 312.2 75.2V185.9C312.2 190.9 308.2 194.9 303.2 194.9H135.5C130.5 194.9 126.5 190.9 126.5 185.9V64.6999H125C120 64.6999 116 60.7 116 55.7V16.7C116 11.7 120 7.69995 125 7.69995H269.8M287.4 57.5999V61.7" stroke="#316474" stroke-linecap="round" stroke-linejoin="round"></path><path d="M300.3 47.6L310.6 47.5C311.3 47.5 312 46.9 312.3 46.3C312.6 45.7 312.6 45 312.3 44.3C310.6 42 308 40.7 305.2 40.7C303.9 40.7 302.6 41.2 302.6 41.2M288 47.3H279C278.3 47.3 277.7 47 277.3 46.3C276.9 45.6 277 45 277.3 44.3C279.4 41.4 283 40.1 286.5 40.9" fill="white"></path><path d="M300.3 47.6L310.6 47.5C311.3 47.5 312 46.9 312.3 46.3C312.6 45.7 312.6 45 312.3 44.3C310.6 42 308 40.7 305.2 40.7C303.9 40.7 302.6 41.2 302.6 41.2M288 47.3H279C278.3 47.3 277.7 47 277.3 46.3C276.9 45.6 277 45 277.3 44.3C279.4 41.4 283 40.1 286.5 40.9" stroke="#316474" stroke-linecap="round" stroke-linejoin="round"></path><path d="M301.8 47.6L287.4 47.3C286.4 47.3 285.4 47 284.8 46.1C284.3 45.1 284.4 44.1 284.9 43.1C288.1 37.8 295.1 36.1 300.4 39.3C301.9 40.2 303.2 41.5 304.2 43.1C304.8 44.1 304.8 45.2 304.3 46.1C303.8 47.1 302.8 47.6 301.8 47.6ZM301.6 35C301.6 33 303.2 31.4 305.2 31.4C307.2 31.4 308.8 33 308.8 35C308.8 37 307.2 38.6 305.2 38.6C303.2 38.6 301.6 37 301.6 35ZM284.5 38.5C282.5 38.8 280.7 37.5 280.4 35.5C280.1 33.5 281.4 31.7 283.4 31.4C283.8 31.3 284.2 31.3 284.6 31.4C286.6 31.7 287.9 33.6 287.6 35.5C287.2 37.1 286 38.2 284.5 38.5ZM294.7 35.3C292.1 35.3 290.1 33.2 290.1 30.7C290.1 28.2 292.2 26.1 294.7 26.1C297.2 26.1 299.3 28.2 299.3 30.7C299.3 33.2 297.3 35.3 294.7 35.3Z" fill="white" stroke="#316474" stroke-linecap="round" stroke-linejoin="round"></path><path d="M125.2 138.4L64.3999 150.7L47.3999 123.9L83.6999 74.3" fill="#FCF5EB"></path><path d="M125.2 138.4L64.3999 150.7L47.3999 123.9L83.6999 74.3" stroke="#316474" stroke-linecap="round" stroke-linejoin="round"></path><path d="M136.8 139.1C145 133.9 140.8 112.5 127.4 91.5C114 70.5 96.3999 57.6 88.1999 62.9C79.8999 68.2 84.0999 89.5 97.4999 110.6C110.9 131.6 128.5 144.4 136.7 139.1H136.8Z" fill="#FCF5EB" stroke="#316474" stroke-linecap="round" stroke-linejoin="round"></path><path d="M113.2 112.9C122.6 124.9 132.4 131.8 137.1 128.9C142.7 125.3 138.5 108.6 127.6 91.6C116.7 74.6 103.4 63.6 97.8001 67.2H97.7001C93.1001 70.2 95.1001 82 102.1 95.6" fill="#FCF5EB"></path><path d="M113.2 112.9C122.6 124.9 132.4 131.8 137.1 128.9C142.7 125.3 138.5 108.6 127.6 91.6C116.7 74.6 103.4 63.6 97.8001 67.2H97.7001C93.1001 70.2 95.1001 82 102.1 95.6" stroke="#316474" stroke-linecap="round" stroke-linejoin="round"></path><path d="M117.3 98.0999C114.2 93.2999 107.8 91.8999 103 94.8999C102.7 95.0999 102.4 95.2999 102.1 95.4999C103.6 98.3999 105.3 101.4 107.2 104.5C109.1 107.6 111.1 110.3 113.1 112.9C113.4 112.7 113.7 112.6 114 112.4C118.9 109.3 120.3 102.9 117.3 98.0999Z" fill="#FCF5EB" stroke="#316474" stroke-linecap="round" stroke-linejoin="round"></path><path d="M51.3 159.3L65 150.6L47.6 123.2L33.9 131.9C25.9 136 22.7 145.8 26.8 153.8C30.9 161.8 40.7 165 48.7 160.9C49.6 160.5 50.5 159.9 51.3 159.3Z" fill="#FCF5EB" stroke="#316474" stroke-linecap="round" stroke-linejoin="round"></path><path d="M75.2001 176.8L75.0001 176.9C72.4001 178.6 69.0001 177.8 67.4001 175.2L55.6001 156.6L65.1001 150.6L76.9001 169.2C78.5001 171.8 77.7001 175.2 75.2001 176.8Z" fill="#FCF5EB" stroke="#316474" stroke-linecap="round" stroke-linejoin="round"></path><path d="M269.9 5.69995V9.69995M126.5 64.6999H201.2M78.1999 8.99995C76.9999 14.9 75.1999 22.7 73.1999 24.7C70.7999 27.2 62.5999 27.7 55.7999 27.7C54.6999 27.7 54.4999 29.3 55.5999 29.6C61.7999 31 69.5999 32.8999 71.4999 35.2999C73.4999 37.6999 73.6999 46.1 73.6999 52.5C73.6999 53.6 75.3999 53.8 75.6999 52.7C77.0999 46.3 78.9999 38.0999 81.5999 36.0999C83.9999 34.2999 93.0999 34.0999 99.5999 34.0999C100.9 34.0999 101 32.5 99.8999 32.2C93.4999 30.9 84.5999 29 82.5999 26.7C80.4999 24.3 80.1999 15.8 80.1999 9.19995C80.1999 8.09995 78.4999 7.89995 78.1999 8.99995ZM110.7 158.3C108.3 160.6 105.5 162.4 102.4 163.7C100.4 163.9 96.3999 161.1 93.0999 158.5C92.5999 158.1 91.8999 158.8 92.2999 159.3C94.6999 162.3 97.5999 166.1 97.5999 168C97.5999 169.9 94.5999 173.9 92.0999 176.9C91.6999 177.4 92.3999 178.1 92.8999 177.7C95.9999 175.3 99.9999 172.2 101.9 172.2C103.8 172.2 108.1 175.7 111.2 178.2C111.7 178.6 112.4 177.9 112 177.3C109.5 174.3 106.1 170 106 168.2C106 166.2 109 162.2 111.5 159.1C111.9 158.6 111.2 157.8 110.7 158.3Z" stroke="#316474" stroke-linecap="round" stroke-linejoin="round"></path><path d="M172.3 166.9C171.4 163 170.4 159.1 169.3 155.2L164.3 151.7L148.2 157.7C148.2 158.2 150.9 170.6 151.1 171.1C151.2 171.5 151.8 172 152.5 172.1C153.1 172.3 164.3 172.7 164.7 172.7C165.1 172.7 165.7 172.7 166.4 172.2C167.1 171.7 171.4 169.2 171.9 168.7C172.4 168.2 172.5 167.8 172.3 166.9Z" fill="white" stroke="#316474" stroke-linecap="round" stroke-linejoin="round"></path><path d="M164.2 151.8L163.1 158.1L148.2 157.7L151.9 152.7L151.6 150.7C151.6 150.2 151.7 149.9 152.4 149.9L162.7 149.1C163.3 149.1 163.5 149 163.7 149.9L164.2 151.9L151.9 152.6M163.1 158.1L165.5 172.6L163.1 158.1ZM161.5 113.7C161.5 113.7 169.1 111.7 171.5 110.9C173.7 110.1 173.4 108.2 173.2 107.5C171.9 102.8 170.6 98.1 169.2 93.5C169.2 93.5 168.7 90.9 165.2 91.6C161.6 92.4 149.5 95.6 149 96C148.5 96.3 146.4 96.8 147.5 100.3C148.7 103.7 149.9 108.1 149.9 108.1" fill="white"></path><path d="M164.2 151.8L163.1 158.1M163.1 158.1L148.2 157.7L151.9 152.7L151.6 150.7C151.6 150.2 151.7 149.9 152.4 149.9L162.7 149.1C163.3 149.1 163.5 149 163.7 149.9L164.2 151.9L151.9 152.6M163.1 158.1L165.5 172.6M161.5 113.7C161.5 113.7 169.1 111.7 171.5 110.9C173.7 110.1 173.4 108.2 173.2 107.5C171.9 102.8 170.6 98.1 169.2 93.5C169.2 93.5 168.7 90.9 165.2 91.6C161.6 92.4 149.5 95.6 149 96C148.5 96.3 146.4 96.8 147.5 100.3C148.7 103.7 149.9 108.1 149.9 108.1" stroke="#316474" stroke-linecap="round" stroke-linejoin="round"></path><path d="M155.5 116.3C152 116 149.4 113 149.7 109.5C150 106.1 153.1 103.5 156.7 103.8C160.2 104.1 162.9 107.2 162.5 110.6C162.1 114 159.1 116.6 155.5 116.3Z" fill="#73F38F" stroke="#316474" stroke-linecap="round" stroke-linejoin="round"></path><path d="M169.9 101.3L168.6 101.6M166.1 102.8L165.1 103M162.7 104.2L161.9 104.4M156.3 94.6L156.6 95.9M157.4 98L157.7 98.9M158.4 101.3C158.4 101.6 158.6 101.9 158.8 102.2M153.4 109.8L153.7 109.5L158.1 108C157.8 108.6 153.5 109.9 153.4 109.8ZM154.2 112.1L154.5 111.8L158.8 110.3C158.6 110.9 154.2 112.2 154.2 112.1ZM150.7 101.7C150.7 101.5 150.8 101.4 151 101.4C152.4 100.9 153.8 100.3 155.3 99.9C155.1 100.5 150.7 101.7 150.7 101.7ZM162 98L162.3 97.8L166.8 97.2C166.5 97.7 161.9 98.2 161.9 98.1L162 98Z" stroke="#316474" stroke-linecap="round" stroke-linejoin="round"></path><path d="M163.7 95.3L164 95.6L165 100C164.4 99.7 163.6 95.3 163.7 95.3ZM165 110C164.8 109.8 165 109.5 165 109.3L168 104.1C168.3 104.9 165 110 165 110Z" stroke="#316474" stroke-linecap="round" stroke-linejoin="round"></path><path d="M163.6 105.7C163.7 105.5 164 105.6 164.2 105.7C165.9 106.5 167.7 107.3 169.4 108.3C168.6 108.7 163.6 105.8 163.6 105.7Z" stroke="#316474" stroke-linecap="round" stroke-linejoin="round"></path><path d="M267.1 96.5L190.7 96.6L267.1 96.5ZM246.3 111L190.9 111.1L246.3 111Z" fill="#FCF5EB"></path><path d="M267.1 96.5L190.7 96.6M246.3 111L190.9 111.1" stroke="#316474" stroke-linecap="round" stroke-linejoin="round"></path><path d="M267.1 153.6L190.7 153.7L267.1 153.6ZM246.3 168.1L190.9 168.2L246.3 168.1Z" fill="#FCF5EB"></path><path d="M267.1 153.6L190.7 153.7M246.3 168.1L190.9 168.2" stroke="#316474" stroke-linecap="round" stroke-linejoin="round"></path></g><defs><clipPath id="clip0_995_68203"><rect width="360" height="200" fill="white"></rect></clipPath></defs></svg>